<svg width="1191" height="7182" viewBox="0 0 1191 7182" fill="none" xmlns="http://www.w3.org/2000/svg">
<path d="M1190.59 7181.5H16.0039C26.6633 6896.19 193.498 6608.5 282.001 6418C370.504 6227.5 368.504 6017 320.004 5833.5C271.504 5650 180.857 5560.54 119.471 5375C-107.873 4687.84 33.9375 4262.5 176.471 3522.5C319.004 2782.5 209.504 2839.5 143.633 2284.48C91.9551 1849.06 246.039 1702.31 298.849 1391.4C351.659 1080.5 294.947 823.286 186.504 594C16.005 233.502 16.0044 62.5007 16.0041 0H1190.59V6471L1190.59 7181.5Z" fill="url(#paint0_linear_406_22)"/>
<defs>
<linearGradient id="paint0_linear_406_22" x1="595.295" y1="0" x2="595.295" y2="7181.5" gradientUnits="userSpaceOnUse">
<stop stop-color="#9887FF"/>
<stop offset="0.557292" stop-color="#7165B5"/>
<stop offset="0.713542" stop-color="#665CA0"/>
<stop offset="0.953125" stop-color="#9887FF"/>
</linearGradient>
</defs>
</svg>
